<mxfile host="app.diagrams.net" modified="2023-04-06T23:59:55.725Z" agent="Mozilla/5.0 (Macintosh; Intel Mac OS X 10_15_7) AppleWebKit/537.36 (KHTML, like Gecko) Chrome/111.0.0.0 Safari/537.36" etag="qscTseTOA7aiF8Z4BX2D" version="21.1.2" type="github">
  <diagram name="第 1 页" id="xd2zeRusx3Oj6pD2ZuMn">
    <mxGraphModel dx="1242" dy="739" grid="1" gridSize="10" guides="1" tooltips="1" connect="1" arrows="1" fold="1" page="1" pageScale="1" pageWidth="827" pageHeight="1169" math="0" shadow="0">
      <root>
        <mxCell id="0" />
        <mxCell id="1" parent="0" />
        <mxCell id="OTnVnUX7G6mZzZNfgaek-127" value="&lt;font style=&quot;font-size: 15px;&quot;&gt;流程配置平台&lt;/font&gt;" style="rounded=0;whiteSpace=wrap;html=1;fillColor=#60a917;fontColor=#ffffff;strokeColor=#2D7600;" parent="1" vertex="1">
          <mxGeometry y="20" width="320" height="60" as="geometry" />
        </mxCell>
        <mxCell id="OTnVnUX7G6mZzZNfgaek-36" value="" style="rounded=1;whiteSpace=wrap;html=1;strokeWidth=2;fillColor=#1ba1e2;fontColor=#ffffff;strokeColor=#006EAF;" parent="1" vertex="1">
          <mxGeometry x="345" y="90" width="445" height="380" as="geometry" />
        </mxCell>
        <mxCell id="OTnVnUX7G6mZzZNfgaek-33" value="" style="rounded=0;whiteSpace=wrap;html=1;dashed=1;dashPattern=12 12;strokeWidth=1;" parent="1" vertex="1">
          <mxGeometry y="90" width="320" height="270" as="geometry" />
        </mxCell>
        <mxCell id="OTnVnUX7G6mZzZNfgaek-24" value="" style="group" parent="1" vertex="1" connectable="0">
          <mxGeometry x="209" y="540" width="410" height="210" as="geometry" />
        </mxCell>
        <mxCell id="OTnVnUX7G6mZzZNfgaek-22" value="" style="rounded=0;whiteSpace=wrap;html=1;dashed=1;dashPattern=12 12;" parent="OTnVnUX7G6mZzZNfgaek-24" vertex="1">
          <mxGeometry y="5" width="410" height="175" as="geometry" />
        </mxCell>
        <mxCell id="OTnVnUX7G6mZzZNfgaek-2" value="&lt;font style=&quot;font-size: 15px;&quot;&gt;动态规则&lt;/font&gt;" style="shape=cylinder3;whiteSpace=wrap;html=1;boundedLbl=1;backgroundOutline=1;size=15;fillColor=#a20025;fontColor=#ffffff;strokeColor=#6F0000;container=0;strokeWidth=2;" parent="OTnVnUX7G6mZzZNfgaek-24" vertex="1">
          <mxGeometry x="315" y="45" width="70" height="90" as="geometry" />
        </mxCell>
        <mxCell id="OTnVnUX7G6mZzZNfgaek-4" value="mysql" style="text;strokeColor=none;align=center;fillColor=none;html=1;verticalAlign=middle;whiteSpace=wrap;rounded=0;fontSize=13;container=0;" parent="OTnVnUX7G6mZzZNfgaek-24" vertex="1">
          <mxGeometry x="320" y="135" width="60" height="30" as="geometry" />
        </mxCell>
        <mxCell id="OTnVnUX7G6mZzZNfgaek-15" value="&lt;font style=&quot;font-size: 15px;&quot;&gt;Flow/Task&lt;br&gt;meta信息&lt;br&gt;&lt;/font&gt;" style="shape=cylinder3;whiteSpace=wrap;html=1;boundedLbl=1;backgroundOutline=1;size=15;fillColor=#a20025;fontColor=#ffffff;strokeColor=#6F0000;container=0;strokeWidth=2;" parent="OTnVnUX7G6mZzZNfgaek-24" vertex="1">
          <mxGeometry x="168.5" y="45" width="70" height="90" as="geometry" />
        </mxCell>
        <mxCell id="OTnVnUX7G6mZzZNfgaek-16" value="mysql" style="text;strokeColor=none;align=center;fillColor=none;html=1;verticalAlign=middle;whiteSpace=wrap;rounded=0;fontSize=13;container=0;" parent="OTnVnUX7G6mZzZNfgaek-24" vertex="1">
          <mxGeometry x="173.5" y="135" width="60" height="30" as="geometry" />
        </mxCell>
        <mxCell id="OTnVnUX7G6mZzZNfgaek-20" value="&lt;font style=&quot;font-size: 15px;&quot;&gt;Flow/Task&lt;br&gt;dsl&lt;br&gt;&lt;/font&gt;" style="shape=cylinder3;whiteSpace=wrap;html=1;boundedLbl=1;backgroundOutline=1;size=15;fillColor=#a20025;fontColor=#ffffff;strokeColor=#6F0000;container=0;strokeWidth=2;" parent="OTnVnUX7G6mZzZNfgaek-24" vertex="1">
          <mxGeometry x="25" y="45" width="70" height="90" as="geometry" />
        </mxCell>
        <mxCell id="OTnVnUX7G6mZzZNfgaek-21" value="泰山" style="text;strokeColor=none;align=center;fillColor=none;html=1;verticalAlign=middle;whiteSpace=wrap;rounded=0;fontSize=13;container=0;" parent="OTnVnUX7G6mZzZNfgaek-24" vertex="1">
          <mxGeometry x="30" y="135" width="60" height="30" as="geometry" />
        </mxCell>
        <mxCell id="OTnVnUX7G6mZzZNfgaek-95" style="edgeStyle=none;rounded=0;orthogonalLoop=1;jettySize=auto;html=1;" parent="OTnVnUX7G6mZzZNfgaek-24" source="OTnVnUX7G6mZzZNfgaek-23" target="OTnVnUX7G6mZzZNfgaek-22" edge="1">
          <mxGeometry relative="1" as="geometry" />
        </mxCell>
        <mxCell id="OTnVnUX7G6mZzZNfgaek-23" value="存储" style="text;strokeColor=none;align=center;fillColor=none;html=1;verticalAlign=middle;whiteSpace=wrap;rounded=0;strokeWidth=15;fontSize=15;" parent="OTnVnUX7G6mZzZNfgaek-24" vertex="1">
          <mxGeometry x="175" y="180" width="60" height="30" as="geometry" />
        </mxCell>
        <mxCell id="OTnVnUX7G6mZzZNfgaek-126" style="edgeStyle=orthogonalEdgeStyle;rounded=0;orthogonalLoop=1;jettySize=auto;html=1;strokeWidth=2;" parent="1" source="OTnVnUX7G6mZzZNfgaek-25" target="OTnVnUX7G6mZzZNfgaek-26" edge="1">
          <mxGeometry relative="1" as="geometry" />
        </mxCell>
        <mxCell id="OTnVnUX7G6mZzZNfgaek-133" style="edgeStyle=orthogonalEdgeStyle;rounded=0;orthogonalLoop=1;jettySize=auto;html=1;strokeWidth=2;" parent="1" source="OTnVnUX7G6mZzZNfgaek-25" target="OTnVnUX7G6mZzZNfgaek-131" edge="1">
          <mxGeometry relative="1" as="geometry">
            <Array as="points">
              <mxPoint x="250" y="230" />
              <mxPoint x="105" y="230" />
            </Array>
          </mxGeometry>
        </mxCell>
        <mxCell id="OTnVnUX7G6mZzZNfgaek-25" value="&lt;font style=&quot;font-size: 15px;&quot;&gt;hermes-admin&lt;/font&gt;" style="rounded=1;whiteSpace=wrap;html=1;strokeWidth=2;fillColor=#1ba1e2;fontColor=#ffffff;strokeColor=#006EAF;" parent="1" vertex="1">
          <mxGeometry x="190" y="100" width="120" height="60" as="geometry" />
        </mxCell>
        <mxCell id="OTnVnUX7G6mZzZNfgaek-30" style="edgeStyle=orthogonalEdgeStyle;rounded=0;orthogonalLoop=1;jettySize=auto;html=1;exitX=0.5;exitY=1;exitDx=0;exitDy=0;strokeWidth=2;" parent="1" source="OTnVnUX7G6mZzZNfgaek-26" target="OTnVnUX7G6mZzZNfgaek-20" edge="1">
          <mxGeometry relative="1" as="geometry">
            <Array as="points">
              <mxPoint x="250" y="500" />
              <mxPoint x="270" y="500" />
            </Array>
          </mxGeometry>
        </mxCell>
        <mxCell id="OTnVnUX7G6mZzZNfgaek-99" style="edgeStyle=orthogonalEdgeStyle;rounded=0;orthogonalLoop=1;jettySize=auto;html=1;entryX=0.5;entryY=0;entryDx=0;entryDy=0;entryPerimeter=0;strokeWidth=2;" parent="1" source="OTnVnUX7G6mZzZNfgaek-26" target="OTnVnUX7G6mZzZNfgaek-15" edge="1">
          <mxGeometry relative="1" as="geometry">
            <Array as="points">
              <mxPoint x="250" y="500" />
              <mxPoint x="413" y="500" />
            </Array>
          </mxGeometry>
        </mxCell>
        <mxCell id="OTnVnUX7G6mZzZNfgaek-100" style="edgeStyle=orthogonalEdgeStyle;rounded=0;orthogonalLoop=1;jettySize=auto;html=1;strokeWidth=2;entryX=0.5;entryY=0;entryDx=0;entryDy=0;entryPerimeter=0;" parent="1" source="OTnVnUX7G6mZzZNfgaek-26" target="OTnVnUX7G6mZzZNfgaek-2" edge="1">
          <mxGeometry relative="1" as="geometry">
            <mxPoint x="560" y="570" as="targetPoint" />
            <Array as="points">
              <mxPoint x="250" y="500" />
              <mxPoint x="560" y="500" />
            </Array>
          </mxGeometry>
        </mxCell>
        <mxCell id="OTnVnUX7G6mZzZNfgaek-26" value="&lt;span style=&quot;font-size: 15px;&quot;&gt;hermes-dao&lt;/span&gt;" style="rounded=1;whiteSpace=wrap;html=1;strokeWidth=2;fillColor=#1ba1e2;fontColor=#ffffff;strokeColor=#006EAF;" parent="1" vertex="1">
          <mxGeometry x="190" y="280" width="120" height="60" as="geometry" />
        </mxCell>
        <mxCell id="OTnVnUX7G6mZzZNfgaek-105" style="edgeStyle=orthogonalEdgeStyle;rounded=0;orthogonalLoop=1;jettySize=auto;html=1;exitX=1;exitY=0.5;exitDx=0;exitDy=0;entryX=1;entryY=0.5;entryDx=0;entryDy=0;strokeWidth=2;" parent="1" source="OTnVnUX7G6mZzZNfgaek-37" target="OTnVnUX7G6mZzZNfgaek-48" edge="1">
          <mxGeometry relative="1" as="geometry">
            <Array as="points">
              <mxPoint x="720" y="140" />
              <mxPoint x="720" y="280" />
            </Array>
          </mxGeometry>
        </mxCell>
        <mxCell id="OTnVnUX7G6mZzZNfgaek-125" style="edgeStyle=orthogonalEdgeStyle;rounded=0;orthogonalLoop=1;jettySize=auto;html=1;entryX=1;entryY=0.5;entryDx=0;entryDy=0;strokeWidth=2;" parent="1" source="OTnVnUX7G6mZzZNfgaek-37" target="OTnVnUX7G6mZzZNfgaek-26" edge="1">
          <mxGeometry relative="1" as="geometry">
            <Array as="points">
              <mxPoint x="330" y="140" />
              <mxPoint x="330" y="310" />
            </Array>
          </mxGeometry>
        </mxCell>
        <mxCell id="OTnVnUX7G6mZzZNfgaek-149" style="edgeStyle=orthogonalEdgeStyle;rounded=0;orthogonalLoop=1;jettySize=auto;html=1;entryX=1;entryY=0.5;entryDx=0;entryDy=0;strokeWidth=2;" parent="1" source="OTnVnUX7G6mZzZNfgaek-37" target="OTnVnUX7G6mZzZNfgaek-40" edge="1">
          <mxGeometry relative="1" as="geometry">
            <Array as="points">
              <mxPoint x="770" y="140" />
              <mxPoint x="770" y="350" />
            </Array>
          </mxGeometry>
        </mxCell>
        <mxCell id="OTnVnUX7G6mZzZNfgaek-37" value="&lt;font style=&quot;font-size: 15px;&quot;&gt;Flow Parser&lt;/font&gt;" style="rounded=0;whiteSpace=wrap;html=1;strokeWidth=2;fillColor=#d80073;strokeColor=#A50040;fontColor=#ffffff;" parent="1" vertex="1">
          <mxGeometry x="499" y="120" width="120" height="40" as="geometry" />
        </mxCell>
        <mxCell id="OTnVnUX7G6mZzZNfgaek-119" style="edgeStyle=none;rounded=0;orthogonalLoop=1;jettySize=auto;html=1;exitX=1;exitY=0.5;exitDx=0;exitDy=0;strokeWidth=2;entryX=0;entryY=0.5;entryDx=0;entryDy=0;" parent="1" source="OTnVnUX7G6mZzZNfgaek-39" target="OTnVnUX7G6mZzZNfgaek-40" edge="1">
          <mxGeometry relative="1" as="geometry">
            <mxPoint x="600" y="350" as="targetPoint" />
          </mxGeometry>
        </mxCell>
        <mxCell id="OTnVnUX7G6mZzZNfgaek-146" style="edgeStyle=orthogonalEdgeStyle;rounded=0;orthogonalLoop=1;jettySize=auto;html=1;exitX=1;exitY=0.5;exitDx=0;exitDy=0;entryX=0;entryY=0.5;entryDx=0;entryDy=0;strokeWidth=2;" parent="1" source="OTnVnUX7G6mZzZNfgaek-39" target="OTnVnUX7G6mZzZNfgaek-145" edge="1">
          <mxGeometry relative="1" as="geometry" />
        </mxCell>
        <mxCell id="OTnVnUX7G6mZzZNfgaek-39" value="&lt;font style=&quot;font-size: 15px;&quot;&gt;Task Processer&lt;/font&gt;" style="rounded=0;whiteSpace=wrap;html=1;strokeWidth=2;fillColor=#d80073;fontColor=#ffffff;strokeColor=#A50040;" parent="1" vertex="1">
          <mxGeometry x="360" y="400" width="130" height="40" as="geometry" />
        </mxCell>
        <mxCell id="OTnVnUX7G6mZzZNfgaek-40" value="&lt;span style=&quot;font-size: 15px;&quot;&gt;Gengine&lt;/span&gt;" style="rounded=0;whiteSpace=wrap;html=1;strokeWidth=2;fillColor=#d80073;fontColor=#ffffff;strokeColor=#A50040;" parent="1" vertex="1">
          <mxGeometry x="610" y="330" width="130" height="40" as="geometry" />
        </mxCell>
        <mxCell id="OTnVnUX7G6mZzZNfgaek-88" value="&lt;b style=&quot;font-size: 13px;&quot;&gt;Flow Dag&lt;/b&gt;" style="text;strokeColor=none;align=center;fillColor=none;html=1;verticalAlign=middle;whiteSpace=wrap;rounded=0;fontSize=13;container=0;" parent="1" vertex="1">
          <mxGeometry x="560" y="180" width="60" height="30" as="geometry" />
        </mxCell>
        <mxCell id="OTnVnUX7G6mZzZNfgaek-94" value="" style="group" parent="1" vertex="1" connectable="0">
          <mxGeometry x="494" y="180" width="130" height="160" as="geometry" />
        </mxCell>
        <mxCell id="OTnVnUX7G6mZzZNfgaek-42" value="" style="ellipse;whiteSpace=wrap;html=1;aspect=fixed;strokeWidth=2;container=0;fillColor=#fff2cc;strokeColor=#d6b656;" parent="OTnVnUX7G6mZzZNfgaek-94" vertex="1">
          <mxGeometry x="45" width="20" height="20" as="geometry" />
        </mxCell>
        <mxCell id="OTnVnUX7G6mZzZNfgaek-43" value="" style="ellipse;whiteSpace=wrap;html=1;aspect=fixed;strokeWidth=2;container=0;fillColor=#d5e8d4;strokeColor=#82b366;" parent="OTnVnUX7G6mZzZNfgaek-94" vertex="1">
          <mxGeometry x="45" y="140" width="20" height="20" as="geometry" />
        </mxCell>
        <mxCell id="OTnVnUX7G6mZzZNfgaek-44" value="" style="ellipse;whiteSpace=wrap;html=1;aspect=fixed;strokeWidth=2;container=0;fillColor=#f8cecc;strokeColor=#b85450;" parent="OTnVnUX7G6mZzZNfgaek-94" vertex="1">
          <mxGeometry x="110" y="50" width="20" height="20" as="geometry" />
        </mxCell>
        <mxCell id="OTnVnUX7G6mZzZNfgaek-73" style="edgeStyle=none;rounded=0;orthogonalLoop=1;jettySize=auto;html=1;exitX=0.5;exitY=1;exitDx=0;exitDy=0;entryX=0.5;entryY=0;entryDx=0;entryDy=0;strokeWidth=2;" parent="OTnVnUX7G6mZzZNfgaek-94" source="OTnVnUX7G6mZzZNfgaek-42" target="OTnVnUX7G6mZzZNfgaek-44" edge="1">
          <mxGeometry relative="1" as="geometry" />
        </mxCell>
        <mxCell id="OTnVnUX7G6mZzZNfgaek-45" value="" style="ellipse;whiteSpace=wrap;html=1;aspect=fixed;strokeWidth=2;container=0;fillColor=#f8cecc;strokeColor=#b85450;" parent="OTnVnUX7G6mZzZNfgaek-94" vertex="1">
          <mxGeometry y="50" width="20" height="20" as="geometry" />
        </mxCell>
        <mxCell id="OTnVnUX7G6mZzZNfgaek-71" style="rounded=0;orthogonalLoop=1;jettySize=auto;html=1;exitX=0.5;exitY=1;exitDx=0;exitDy=0;entryX=0.5;entryY=0;entryDx=0;entryDy=0;strokeWidth=2;" parent="OTnVnUX7G6mZzZNfgaek-94" source="OTnVnUX7G6mZzZNfgaek-42" target="OTnVnUX7G6mZzZNfgaek-45" edge="1">
          <mxGeometry relative="1" as="geometry" />
        </mxCell>
        <mxCell id="OTnVnUX7G6mZzZNfgaek-86" style="edgeStyle=none;rounded=0;orthogonalLoop=1;jettySize=auto;html=1;exitX=0.5;exitY=1;exitDx=0;exitDy=0;strokeWidth=2;" parent="OTnVnUX7G6mZzZNfgaek-94" source="OTnVnUX7G6mZzZNfgaek-46" edge="1">
          <mxGeometry relative="1" as="geometry">
            <mxPoint x="55" y="140" as="targetPoint" />
          </mxGeometry>
        </mxCell>
        <mxCell id="OTnVnUX7G6mZzZNfgaek-46" value="" style="ellipse;whiteSpace=wrap;html=1;aspect=fixed;strokeWidth=2;container=0;fillColor=#f8cecc;strokeColor=#b85450;" parent="OTnVnUX7G6mZzZNfgaek-94" vertex="1">
          <mxGeometry x="45" y="90" width="20" height="20" as="geometry" />
        </mxCell>
        <mxCell id="OTnVnUX7G6mZzZNfgaek-74" style="edgeStyle=none;rounded=0;orthogonalLoop=1;jettySize=auto;html=1;exitX=0.5;exitY=1;exitDx=0;exitDy=0;entryX=0.5;entryY=0;entryDx=0;entryDy=0;strokeWidth=2;" parent="OTnVnUX7G6mZzZNfgaek-94" source="OTnVnUX7G6mZzZNfgaek-44" target="OTnVnUX7G6mZzZNfgaek-46" edge="1">
          <mxGeometry relative="1" as="geometry" />
        </mxCell>
        <mxCell id="OTnVnUX7G6mZzZNfgaek-85" style="edgeStyle=none;rounded=0;orthogonalLoop=1;jettySize=auto;html=1;exitX=0.5;exitY=1;exitDx=0;exitDy=0;entryX=0.5;entryY=0;entryDx=0;entryDy=0;strokeWidth=2;" parent="OTnVnUX7G6mZzZNfgaek-94" source="OTnVnUX7G6mZzZNfgaek-45" target="OTnVnUX7G6mZzZNfgaek-46" edge="1">
          <mxGeometry relative="1" as="geometry" />
        </mxCell>
        <mxCell id="OTnVnUX7G6mZzZNfgaek-79" style="edgeStyle=none;rounded=0;orthogonalLoop=1;jettySize=auto;html=1;exitX=0.5;exitY=1;exitDx=0;exitDy=0;entryX=0.5;entryY=0;entryDx=0;entryDy=0;strokeWidth=2;" parent="OTnVnUX7G6mZzZNfgaek-94" source="OTnVnUX7G6mZzZNfgaek-47" target="OTnVnUX7G6mZzZNfgaek-43" edge="1">
          <mxGeometry relative="1" as="geometry" />
        </mxCell>
        <mxCell id="OTnVnUX7G6mZzZNfgaek-47" value="" style="ellipse;whiteSpace=wrap;html=1;aspect=fixed;strokeWidth=2;container=0;fillColor=#f8cecc;strokeColor=#b85450;" parent="OTnVnUX7G6mZzZNfgaek-94" vertex="1">
          <mxGeometry y="90" width="20" height="20" as="geometry" />
        </mxCell>
        <mxCell id="OTnVnUX7G6mZzZNfgaek-66" style="edgeStyle=orthogonalEdgeStyle;rounded=0;orthogonalLoop=1;jettySize=auto;html=1;exitX=0.5;exitY=1;exitDx=0;exitDy=0;entryX=0.5;entryY=0;entryDx=0;entryDy=0;strokeWidth=2;" parent="OTnVnUX7G6mZzZNfgaek-94" source="OTnVnUX7G6mZzZNfgaek-45" target="OTnVnUX7G6mZzZNfgaek-47" edge="1">
          <mxGeometry relative="1" as="geometry" />
        </mxCell>
        <mxCell id="OTnVnUX7G6mZzZNfgaek-81" style="edgeStyle=none;rounded=0;orthogonalLoop=1;jettySize=auto;html=1;exitX=0.5;exitY=1;exitDx=0;exitDy=0;entryX=0.5;entryY=0;entryDx=0;entryDy=0;strokeWidth=2;" parent="OTnVnUX7G6mZzZNfgaek-94" source="OTnVnUX7G6mZzZNfgaek-48" target="OTnVnUX7G6mZzZNfgaek-43" edge="1">
          <mxGeometry relative="1" as="geometry" />
        </mxCell>
        <mxCell id="OTnVnUX7G6mZzZNfgaek-48" value="" style="ellipse;whiteSpace=wrap;html=1;aspect=fixed;strokeWidth=2;container=0;fillColor=#f8cecc;strokeColor=#b85450;" parent="OTnVnUX7G6mZzZNfgaek-94" vertex="1">
          <mxGeometry x="110" y="90" width="20" height="20" as="geometry" />
        </mxCell>
        <mxCell id="OTnVnUX7G6mZzZNfgaek-68" style="edgeStyle=orthogonalEdgeStyle;rounded=0;orthogonalLoop=1;jettySize=auto;html=1;exitX=0.5;exitY=1;exitDx=0;exitDy=0;entryX=0.5;entryY=0;entryDx=0;entryDy=0;strokeWidth=2;" parent="OTnVnUX7G6mZzZNfgaek-94" source="OTnVnUX7G6mZzZNfgaek-44" target="OTnVnUX7G6mZzZNfgaek-48" edge="1">
          <mxGeometry relative="1" as="geometry" />
        </mxCell>
        <mxCell id="OTnVnUX7G6mZzZNfgaek-67" style="edgeStyle=orthogonalEdgeStyle;rounded=0;orthogonalLoop=1;jettySize=auto;html=1;exitX=0.5;exitY=1;exitDx=0;exitDy=0;entryX=0.5;entryY=0;entryDx=0;entryDy=0;strokeWidth=2;" parent="OTnVnUX7G6mZzZNfgaek-94" source="OTnVnUX7G6mZzZNfgaek-50" target="OTnVnUX7G6mZzZNfgaek-46" edge="1">
          <mxGeometry relative="1" as="geometry" />
        </mxCell>
        <mxCell id="OTnVnUX7G6mZzZNfgaek-50" value="" style="ellipse;whiteSpace=wrap;html=1;aspect=fixed;strokeWidth=2;container=0;fillColor=#f8cecc;strokeColor=#b85450;" parent="OTnVnUX7G6mZzZNfgaek-94" vertex="1">
          <mxGeometry x="45" y="50" width="20" height="20" as="geometry" />
        </mxCell>
        <mxCell id="OTnVnUX7G6mZzZNfgaek-72" style="edgeStyle=orthogonalEdgeStyle;rounded=0;orthogonalLoop=1;jettySize=auto;html=1;exitX=0.5;exitY=1;exitDx=0;exitDy=0;entryX=0.5;entryY=0;entryDx=0;entryDy=0;strokeWidth=2;" parent="OTnVnUX7G6mZzZNfgaek-94" source="OTnVnUX7G6mZzZNfgaek-42" target="OTnVnUX7G6mZzZNfgaek-50" edge="1">
          <mxGeometry relative="1" as="geometry" />
        </mxCell>
        <mxCell id="OTnVnUX7G6mZzZNfgaek-83" value="&lt;font style=&quot;font-size: 15px;&quot;&gt;&lt;b&gt;...&lt;/b&gt;&lt;/font&gt;" style="text;strokeColor=none;align=center;fillColor=none;html=1;verticalAlign=middle;whiteSpace=wrap;rounded=0;container=0;" parent="OTnVnUX7G6mZzZNfgaek-94" vertex="1">
          <mxGeometry x="60" y="40" width="60" height="30" as="geometry" />
        </mxCell>
        <mxCell id="OTnVnUX7G6mZzZNfgaek-84" value="&lt;font style=&quot;font-size: 15px;&quot;&gt;&lt;b&gt;...&lt;/b&gt;&lt;/font&gt;" style="text;strokeColor=none;align=center;fillColor=none;html=1;verticalAlign=middle;whiteSpace=wrap;rounded=0;container=0;" parent="OTnVnUX7G6mZzZNfgaek-94" vertex="1">
          <mxGeometry x="60" y="85" width="60" height="30" as="geometry" />
        </mxCell>
        <mxCell id="OTnVnUX7G6mZzZNfgaek-106" style="edgeStyle=orthogonalEdgeStyle;rounded=0;orthogonalLoop=1;jettySize=auto;html=1;strokeWidth=2;" parent="1" source="OTnVnUX7G6mZzZNfgaek-103" target="OTnVnUX7G6mZzZNfgaek-39" edge="1">
          <mxGeometry relative="1" as="geometry">
            <Array as="points">
              <mxPoint x="411" y="360" />
              <mxPoint x="411" y="360" />
            </Array>
          </mxGeometry>
        </mxCell>
        <mxCell id="OTnVnUX7G6mZzZNfgaek-103" value="&lt;span style=&quot;font-size: 15px;&quot;&gt;Task&lt;/span&gt;" style="rounded=0;whiteSpace=wrap;html=1;strokeWidth=2;fillColor=#d80073;fontColor=#ffffff;strokeColor=#A50040;" parent="1" vertex="1">
          <mxGeometry x="373" y="290" width="81" height="40" as="geometry" />
        </mxCell>
        <mxCell id="OTnVnUX7G6mZzZNfgaek-110" style="edgeStyle=orthogonalEdgeStyle;rounded=0;orthogonalLoop=1;jettySize=auto;html=1;exitX=1;exitY=0.5;exitDx=0;exitDy=0;entryX=0;entryY=0.5;entryDx=0;entryDy=0;strokeWidth=2;" parent="1" source="OTnVnUX7G6mZzZNfgaek-109" target="OTnVnUX7G6mZzZNfgaek-42" edge="1">
          <mxGeometry relative="1" as="geometry">
            <Array as="points">
              <mxPoint x="510" y="190" />
              <mxPoint x="510" y="190" />
            </Array>
          </mxGeometry>
        </mxCell>
        <mxCell id="OTnVnUX7G6mZzZNfgaek-111" style="edgeStyle=orthogonalEdgeStyle;rounded=0;orthogonalLoop=1;jettySize=auto;html=1;entryX=0.5;entryY=0;entryDx=0;entryDy=0;strokeWidth=2;" parent="1" source="OTnVnUX7G6mZzZNfgaek-109" target="OTnVnUX7G6mZzZNfgaek-103" edge="1">
          <mxGeometry relative="1" as="geometry">
            <Array as="points">
              <mxPoint x="414" y="250" />
            </Array>
          </mxGeometry>
        </mxCell>
        <mxCell id="OTnVnUX7G6mZzZNfgaek-109" value="&lt;font style=&quot;font-size: 15px;&quot;&gt;Flow Executor&lt;/font&gt;" style="rounded=0;whiteSpace=wrap;html=1;strokeWidth=2;fillColor=#d80073;fontColor=#ffffff;strokeColor=#A50040;" parent="1" vertex="1">
          <mxGeometry x="360" y="175" width="130" height="40" as="geometry" />
        </mxCell>
        <mxCell id="OTnVnUX7G6mZzZNfgaek-117" value="" style="endArrow=classic;startArrow=classic;html=1;rounded=0;strokeWidth=2;" parent="1" edge="1">
          <mxGeometry width="50" height="50" relative="1" as="geometry">
            <mxPoint x="454" y="310" as="sourcePoint" />
            <mxPoint x="490" y="280" as="targetPoint" />
          </mxGeometry>
        </mxCell>
        <mxCell id="OTnVnUX7G6mZzZNfgaek-120" style="edgeStyle=none;rounded=0;orthogonalLoop=1;jettySize=auto;html=1;exitX=1;exitY=0.5;exitDx=0;exitDy=0;" parent="1" source="OTnVnUX7G6mZzZNfgaek-36" target="OTnVnUX7G6mZzZNfgaek-36" edge="1">
          <mxGeometry relative="1" as="geometry" />
        </mxCell>
        <mxCell id="OTnVnUX7G6mZzZNfgaek-128" value="&lt;font style=&quot;font-size: 15px;&quot;&gt;Hermes业务应用集群&lt;/font&gt;" style="rounded=0;whiteSpace=wrap;html=1;fillColor=#60a917;fontColor=#ffffff;strokeColor=#2D7600;" parent="1" vertex="1">
          <mxGeometry x="345" y="20" width="445" height="60" as="geometry" />
        </mxCell>
        <mxCell id="OTnVnUX7G6mZzZNfgaek-130" style="edgeStyle=orthogonalEdgeStyle;rounded=0;orthogonalLoop=1;jettySize=auto;html=1;entryX=0;entryY=0.5;entryDx=0;entryDy=0;strokeWidth=2;" parent="1" source="OTnVnUX7G6mZzZNfgaek-129" target="OTnVnUX7G6mZzZNfgaek-25" edge="1">
          <mxGeometry relative="1" as="geometry">
            <Array as="points">
              <mxPoint x="140" y="130" />
              <mxPoint x="140" y="130" />
            </Array>
          </mxGeometry>
        </mxCell>
        <mxCell id="OTnVnUX7G6mZzZNfgaek-129" value="" style="shape=actor;whiteSpace=wrap;html=1;fillColor=#fa6800;fontColor=#000000;strokeColor=#C73500;" parent="1" vertex="1">
          <mxGeometry x="10" y="100" width="40" height="60" as="geometry" />
        </mxCell>
        <mxCell id="OTnVnUX7G6mZzZNfgaek-131" value="&lt;font style=&quot;font-size: 15px;&quot;&gt;Udf代码仓&lt;br&gt;&lt;/font&gt;" style="shape=cylinder3;whiteSpace=wrap;html=1;boundedLbl=1;backgroundOutline=1;size=15;fillColor=#a20025;fontColor=#ffffff;strokeColor=#6F0000;container=0;strokeWidth=2;" parent="1" vertex="1">
          <mxGeometry x="70" y="585" width="70" height="90" as="geometry" />
        </mxCell>
        <mxCell id="OTnVnUX7G6mZzZNfgaek-132" value="拉取flow dsl" style="text;strokeColor=none;align=center;fillColor=none;html=1;verticalAlign=middle;whiteSpace=wrap;rounded=0;fontSize=13;" parent="1" vertex="1">
          <mxGeometry x="360" y="110" width="130" height="30" as="geometry" />
        </mxCell>
        <mxCell id="OTnVnUX7G6mZzZNfgaek-136" value="&lt;font style=&quot;font-size: 15px;&quot;&gt;hermes-engine&lt;/font&gt;" style="text;strokeColor=none;align=center;fillColor=none;html=1;verticalAlign=middle;whiteSpace=wrap;rounded=0;fontColor=#FFFFFF;fontStyle=0" parent="1" vertex="1">
          <mxGeometry x="494" y="90" width="130" height="30" as="geometry" />
        </mxCell>
        <mxCell id="OTnVnUX7G6mZzZNfgaek-137" value="配置flow dag" style="text;strokeColor=none;align=center;fillColor=none;html=1;verticalAlign=middle;whiteSpace=wrap;rounded=0;fontSize=13;container=0;" parent="1" vertex="1">
          <mxGeometry x="50" y="100" width="140" height="30" as="geometry" />
        </mxCell>
        <mxCell id="OTnVnUX7G6mZzZNfgaek-138" value="注册动态配置的规则" style="text;strokeColor=none;align=center;fillColor=none;html=1;verticalAlign=middle;whiteSpace=wrap;rounded=0;fontSize=13;container=0;" parent="1" vertex="1">
          <mxGeometry x="50" y="130" width="140" height="30" as="geometry" />
        </mxCell>
        <mxCell id="OTnVnUX7G6mZzZNfgaek-141" value="将dsl解析为dag" style="text;strokeColor=none;align=center;fillColor=none;html=1;verticalAlign=middle;whiteSpace=wrap;rounded=0;fontSize=13;" parent="1" vertex="1">
          <mxGeometry x="610" y="200" width="130" height="30" as="geometry" />
        </mxCell>
        <mxCell id="OTnVnUX7G6mZzZNfgaek-143" value="拉取动态配置的规则" style="text;strokeColor=none;align=center;fillColor=none;html=1;verticalAlign=middle;whiteSpace=wrap;rounded=0;fontSize=13;" parent="1" vertex="1">
          <mxGeometry x="357.5" y="140" width="130" height="30" as="geometry" />
        </mxCell>
        <mxCell id="OTnVnUX7G6mZzZNfgaek-145" value="&lt;span style=&quot;font-size: 15px;&quot;&gt;Data Manager&lt;/span&gt;" style="rounded=0;whiteSpace=wrap;html=1;strokeWidth=2;fillColor=#d80073;fontColor=#ffffff;strokeColor=#A50040;" parent="1" vertex="1">
          <mxGeometry x="610" y="400" width="130" height="40" as="geometry" />
        </mxCell>
        <mxCell id="OTnVnUX7G6mZzZNfgaek-150" value="交付gengine编译动态规则" style="text;strokeColor=none;align=center;fillColor=none;html=1;verticalAlign=middle;whiteSpace=wrap;rounded=0;fontSize=13;" parent="1" vertex="1">
          <mxGeometry x="640" y="295" width="130" height="30" as="geometry" />
        </mxCell>
        <mxCell id="OTnVnUX7G6mZzZNfgaek-151" value="执行规则" style="text;strokeColor=none;align=center;fillColor=none;html=1;verticalAlign=middle;whiteSpace=wrap;rounded=0;fontSize=13;" parent="1" vertex="1">
          <mxGeometry x="454" y="360" width="130" height="30" as="geometry" />
        </mxCell>
        <mxCell id="OTnVnUX7G6mZzZNfgaek-152" value="存储Task执行结果" style="text;strokeColor=none;align=center;fillColor=none;html=1;verticalAlign=middle;whiteSpace=wrap;rounded=0;fontSize=13;" parent="1" vertex="1">
          <mxGeometry x="480" y="420" width="130" height="30" as="geometry" />
        </mxCell>
        <mxCell id="OTnVnUX7G6mZzZNfgaek-153" value="调度执行dag" style="text;strokeColor=none;align=center;fillColor=none;html=1;verticalAlign=middle;whiteSpace=wrap;rounded=0;fontSize=13;" parent="1" vertex="1">
          <mxGeometry x="400" y="240" width="100" height="30" as="geometry" />
        </mxCell>
        <mxCell id="OTnVnUX7G6mZzZNfgaek-156" value="执行Task具体任务" style="text;strokeColor=none;align=center;fillColor=none;html=1;verticalAlign=middle;whiteSpace=wrap;rounded=0;fontSize=13;" parent="1" vertex="1">
          <mxGeometry x="410" y="350" width="115" height="20" as="geometry" />
        </mxCell>
      </root>
    </mxGraphModel>
  </diagram>
</mxfile>
